<svg xmlns="http://www.w3.org/2000/svg" width="200" height="200" viewBox="0 0 200 200">
  <!-- Triangular logo mark -->
  <g transform="translate(25, 30)">
    <!-- First triangle -->
    <polygon points="75,0 0,100 45,100" fill="white" />
    <!-- Second triangle -->
    <polygon points="75,0 105,100 150,100" fill="white" />
    <!-- Connecting line -->
    <polygon points="45,60 75,20 105,60 75,100" fill="white" />
  </g>
  
  <!-- Text "AVITO" -->
  <g transform="translate(20, 150)">
    <path d="M10,0 L25,30 L40,0 L50,0 L30,40 L20,40 L0,0 Z" fill="white" /> <!-- A -->
    <path d="M55,0 L65,30 L75,0 L85,0 L70,40 L60,40 L45,0 Z" fill="white" /> <!-- V -->
    <path d="M90,0 L90,40 L100,40 L100,0 Z" fill="white" /> <!-- I -->
    <path d="M105,0 L145,0 L145,10 L115,10 L115,15 L140,15 L140,25 L115,25 L115,30 L145,30 L145,40 L105,40 Z" fill="white" /> <!-- T -->
    <circle cx="160" cy="20" r="15" stroke="white" stroke-width="5" fill="none" /> <!-- O -->
  </g>
</svg> 